<svg version="1.1" id="Layer_1" xmlns="http://www.w3.org/2000/svg" xmlns:xlink="http://www.w3.org/1999/xlink" x="0px" y="0px"
	 width="40" height="40" viewBox="0 0 572 468" enable-background="new 0 0 572 468" xml:space="preserve">
<path fill="#00B900" opacity="1.000000" stroke="none" 
	d="
M573.000000,5.000000 
	C573.000000,159.622879 573.000000,314.245758 573.000000,468.934326 
	C382.431122,468.934326 191.862213,468.934326 1.000000,468.934326 
	C1.000000,314.641876 1.000000,160.283585 1.461254,5.462099 
	C192.281677,4.999281 382.640839,4.999640 573.000000,5.000000 
M107.019943,227.011154 
	C107.019943,227.011154 107.104210,227.130280 106.550850,227.159302 
	C106.411179,227.474487 106.271507,227.789673 106.012787,228.022812 
	C106.012787,228.022812 106.108986,228.130936 105.567535,228.183304 
	C105.422058,228.492065 105.276573,228.800842 105.023216,229.013290 
	C105.023216,229.013290 105.104660,229.132660 104.551231,229.159698 
	C104.412018,229.474869 104.272804,229.790039 104.013603,230.023819 
	C104.013603,230.023819 104.110344,230.131973 103.567802,230.183456 
	C103.428825,230.494156 103.289848,230.804855 103.040077,231.035522 
	C103.040077,231.035522 103.114304,231.150284 102.564339,231.175613 
	C102.429741,231.489349 102.295151,231.803070 102.023247,232.021393 
	C102.023247,232.021393 102.136230,232.144638 101.464348,232.266998 
	C100.153801,233.542023 98.686043,234.691925 97.556671,236.111115 
	C83.909447,253.260056 73.354683,272.009338 67.905800,293.418030 
	C63.987583,308.812653 61.066872,324.309357 62.196762,340.628632 
	C62.196762,340.628632 62.130333,340.953735 61.570595,341.051727 
	C61.748856,341.341888 61.927116,341.632080 62.032700,342.006744 
	C62.032700,342.006744 62.070335,341.902069 62.214939,342.520020 
	C62.806595,342.639130 63.398251,342.758209 64.918266,343.025055 
	C72.503777,343.025055 80.089294,343.025055 87.713058,343.025055 
	C88.822617,301.897186 100.118950,266.037140 133.140869,238.519531 
	C133.140869,245.388184 132.812332,251.203735 133.223236,256.966583 
	C133.747910,264.324738 135.639984,271.214386 142.999329,274.997986 
	C142.999329,274.997986 143.068710,274.926605 143.269318,275.591797 
	C147.909943,277.380188 152.501190,280.542236 157.200058,280.711182 
	C174.466766,281.332062 191.769180,280.959778 209.058167,280.960663 
	C215.874008,280.961029 222.690323,281.005951 229.505508,280.938751 
	C232.628113,280.907959 234.388138,281.082886 233.352402,285.350098 
	C230.684738,296.340790 228.611542,307.478180 226.404678,318.577606 
	C224.196686,329.682770 222.114594,340.812958 219.374664,352.428894 
	C214.810150,374.762146 210.245621,397.095398 205.563629,420.003418 
	C216.897644,420.003418 227.009201,420.089417 237.114685,419.881470 
	C238.227814,419.858551 240.036285,418.311615 240.280197,417.199188 
	C241.674057,410.842499 242.691803,404.403290 244.157120,397.279572 
	C245.219254,392.514771 246.315674,387.757324 247.337173,382.983826 
	C250.525558,368.084412 253.740829,353.190430 256.842468,338.272858 
	C260.576843,320.312134 264.294373,302.346649 267.789246,284.338623 
	C268.351715,281.440277 269.738953,280.482483 272.128510,281.045349 
	C275.235321,281.777100 279.786285,278.458740 281.239716,284.126038 
	C282.173920,287.768829 283.184937,291.391968 284.047058,295.848480 
	C286.884460,309.856476 289.727478,323.863312 292.557770,337.872742 
	C295.747345,353.660736 298.915527,369.453064 302.112213,385.239624 
	C304.134583,395.226959 306.049316,405.240509 308.363678,415.160339 
	C308.787415,416.976501 310.843292,419.727478 312.243408,419.788025 
	C321.724243,420.197784 331.233398,420.086212 340.726288,419.852448 
	C341.572021,419.831604 343.241119,417.568420 343.057068,416.637390 
	C338.689880,394.546478 334.161011,372.487152 329.577576,350.439545 
	C324.838165,327.641754 320.009918,304.862427 315.067291,281.345856 
	C317.241516,281.212189 318.973083,281.014618 320.704834,281.013062 
	C344.034973,280.991730 367.365143,281.020569 390.695251,280.987183 
	C402.404419,280.970428 413.253876,271.807892 414.868408,260.205933 
	C415.640381,254.658722 415.464996,248.984970 415.987274,243.393616 
	C416.100708,242.179230 417.363861,241.072235 418.017456,240.004044 
	C418.017456,240.004044 418.085846,239.912506 418.137146,240.468964 
	C418.455048,240.614685 418.772919,240.760406 418.998199,240.994675 
	C418.998199,240.994675 419.078064,240.893600 419.226654,241.556335 
	C431.351837,252.908813 441.427338,265.720215 448.197449,281.047516 
	C456.236206,299.247101 460.411163,318.180420 460.222382,338.101685 
	C460.207794,339.640320 461.618225,341.192474 462.891541,342.837067 
	C463.245911,342.824677 463.600250,342.812286 464.876984,343.015015 
	C472.111359,343.015015 479.345764,343.015015 487.320374,343.015015 
	C486.781067,336.135345 486.306122,330.076477 485.973328,323.130920 
	C484.958710,316.132507 484.366119,309.041840 482.859772,302.150909 
	C474.187592,262.479034 453.210480,231.095108 419.151764,208.695312 
	C416.740631,207.109558 415.787476,205.305679 415.802399,202.259384 
	C415.950317,172.114059 415.892853,141.967697 415.892517,111.821632 
	C415.892273,91.502182 415.990814,71.181969 415.834686,50.863708 
	C415.780151,43.766090 412.832764,38.000824 405.961823,35.079342 
	C399.364716,32.274307 393.820526,34.843033 388.634003,38.938259 
	C385.020935,41.791111 381.277954,44.479950 377.582153,47.227425 
	C364.379089,57.042618 351.152771,66.826614 337.969849,76.668709 
	C317.822296,91.710449 297.691010,106.774132 277.588440,121.875931 
	C275.141968,123.713821 273.343994,123.524902 270.815979,121.624619 
	C248.971634,105.204437 227.018524,88.928421 205.042465,72.684311 
	C196.465973,66.344803 187.748154,60.196503 178.771942,53.361534 
	C171.819519,48.102230 164.884827,42.819248 157.908783,37.591457 
	C152.748978,33.724747 147.034866,32.598843 141.230316,35.612476 
	C135.276855,38.703434 133.025452,43.984489 133.041519,50.744774 
	C133.160522,100.811775 133.064072,150.879303 133.191208,200.946259 
	C133.200775,204.719330 131.900909,206.744766 128.901428,208.983261 
	C121.714233,214.346939 115.017624,220.367996 108.000717,226.008926 
	C108.000717,226.008926 108.110817,226.136261 107.567139,226.181152 
	C107.420937,226.490387 107.274734,226.799622 107.019943,227.011154 
M462.487396,355.194672 
	C462.385529,355.536560 462.283661,355.878448 461.815918,356.797729 
	C459.971741,359.734039 458.065430,362.633514 456.298706,365.615662 
	C453.924500,369.623230 454.400665,373.454010 457.562622,375.081635 
	C461.754242,377.239227 463.925110,374.653229 465.859039,371.373230 
	C468.383514,367.091614 471.083984,362.913849 474.120026,358.029694 
	C477.714325,363.745453 480.770599,368.431091 483.639282,373.228943 
	C485.545807,376.417511 488.164124,376.437378 490.777313,374.783295 
	C493.291382,373.191925 494.853485,370.855255 492.831909,367.706848 
	C491.492157,365.620300 490.071045,363.575348 488.883820,361.403839 
	C486.795013,357.583221 482.075500,354.423309 485.881653,348.999390 
	C486.426636,348.222748 485.377930,346.327789 484.503174,344.310516 
	C476.988617,344.538177 469.474060,344.765839 462.004120,345.003937 
	C462.004120,345.003937 461.993256,344.959412 461.346863,345.381897 
	C461.569122,347.326904 461.791412,349.271912 462.058105,351.726196 
	C462.313995,352.133667 462.569916,352.541138 462.948578,353.629791 
	C462.967804,354.090118 462.987030,354.550476 463.001221,355.001068 
	C463.001221,355.001068 463.011871,355.003204 462.487396,355.194672 
M240.936005,450.866302 
	C240.831619,447.646545 241.762436,443.873352 240.400543,441.325836 
	C237.816544,436.492249 234.961639,432.172760 237.969177,426.592194 
	C238.043365,426.454498 237.988846,426.250641 238.054352,426.104553 
	C240.080994,421.585815 237.508957,421.029175 233.882904,421.069336 
	C226.235764,421.154053 218.563950,421.454407 210.947083,420.966553 
	C205.902237,420.643372 203.890533,423.241760 204.290009,427.204193 
	C204.844208,432.701172 202.118195,436.592499 199.680038,440.843445 
	C198.634354,442.666565 197.451889,444.699707 197.361084,446.684509 
	C197.296432,448.097809 198.951553,449.589844 200.431747,451.682953 
	C213.118439,451.771729 225.805084,451.871979 238.491928,451.911194 
	C239.049408,451.912903 239.608643,451.356903 240.936005,450.866302 
M350.948242,450.788818 
	C353.851166,445.127289 349.903229,441.236237 347.377777,436.978394 
	C346.564575,435.607422 345.247925,434.316498 345.024536,432.856934 
	C344.449982,429.102966 344.358612,425.275116 344.080811,421.565887 
	C332.457397,421.565887 321.640503,421.565887 310.244232,421.565887 
	C311.318939,426.037689 312.253876,429.927795 313.017761,433.106232 
	C310.768860,437.651794 308.578644,441.840393 306.620392,446.134796 
	C305.601105,448.370056 305.827515,450.411316 309.412292,451.667725 
	C322.301819,451.769867 335.191284,451.888184 348.081024,451.930878 
	C348.793396,451.933258 349.507874,451.308197 350.948242,450.788818 
M55.173710,370.453888 
	C56.861404,372.236481 58.359402,375.132629 60.294598,375.462311 
	C61.952908,375.744812 64.343269,373.318726 65.983345,371.667023 
	C67.583389,370.055573 68.761772,367.975769 69.910011,365.977875 
	C71.382828,363.415253 72.640602,360.729034 74.355362,357.385712 
	C77.967041,363.151154 80.968475,367.872681 83.894775,372.640350 
	C85.605942,375.428284 87.746399,376.647766 90.902725,374.981934 
	C94.190453,373.246765 94.837715,370.686951 93.122185,367.511322 
	C91.159386,363.877899 89.251198,360.199585 87.023712,356.730560 
	C85.740898,354.732727 85.087105,353.454773 86.936684,351.197357 
	C89.300072,348.312836 88.126595,344.284027 85.199333,344.188019 
	C77.612457,343.939209 70.011986,344.104553 61.592796,344.104553 
	C62.239979,348.009583 62.758377,351.137573 63.301201,354.412903 
	C60.763336,359.235657 58.009640,364.468567 55.173710,370.453888 
z"/>
<path fill="#222222" opacity="1.000000" stroke="none" 
	d="
M1.000000,3.000000 
	C1.333333,2.333333 1.548027,1.216341 2.023962,1.090954 
	C3.114909,0.803541 4.333333,1.000000 5.500000,1.000000 
	C193.166672,1.000000 380.833344,0.997669 568.500000,1.041341 
	C570.000061,1.041690 571.500000,1.666671 572.538757,2.499880 
	C381.718353,2.999838 191.359177,2.999919 1.000000,3.000000 
z"/>
<path fill="#AAAAAA" opacity="1.000000" stroke="none" 
	d="
M1.000000,3.333333 
	C191.359177,2.999919 381.718353,2.999838 572.538757,2.999878 
	C573.000000,3.444444 573.000000,3.888889 573.000000,4.666667 
	C382.640839,4.999640 192.281677,4.999281 1.461254,4.999461 
	C1.000000,4.555555 1.000000,4.111111 1.000000,3.333333 
z"/>
<path fill="#FDF9F8" opacity="1.000000" stroke="none" 
	d="
M62.130333,340.953735 
	C62.130333,340.953735 62.196762,340.628632 62.628403,340.308167 
	C63.331127,339.592896 63.795097,339.221130 63.845272,338.800049 
	C65.344231,326.220306 66.055534,313.488190 68.503014,301.098541 
	C70.460190,291.190979 73.603142,281.267578 77.893562,272.137756 
	C82.669373,261.975067 89.316406,252.688431 95.197334,243.050003 
	C97.441086,239.372650 99.819290,235.777328 102.136230,232.144638 
	C102.136230,232.144638 102.023247,232.021393 102.366974,232.056854 
	C102.845230,231.778305 102.979759,231.464294 103.114304,231.150284 
	C103.114304,231.150284 103.040077,231.035522 103.375992,231.065674 
	C103.844719,230.774551 103.977539,230.453262 104.110352,230.131973 
	C104.110344,230.131973 104.013603,230.023819 104.347992,230.047424 
	C104.823135,229.758255 104.963898,229.445450 105.104660,229.132660 
	C105.104660,229.132660 105.023216,229.013290 105.358734,229.052948 
	C105.832489,228.772064 105.970734,228.451492 106.108978,228.130936 
	C106.108986,228.130936 106.012787,228.022812 106.346832,228.045746 
	C106.821991,227.755875 106.963097,227.443069 107.104202,227.130280 
	C107.104210,227.130280 107.019943,227.011154 107.355003,227.051941 
	C107.830315,226.773911 107.970566,226.455078 108.110817,226.136261 
	C108.110817,226.136261 108.000717,226.008926 108.424965,226.089066 
	C115.723320,221.074875 122.473335,215.800003 129.520020,210.956772 
	C133.481735,208.233841 134.962952,205.058975 134.946823,200.208466 
	C134.782898,150.923035 134.890213,101.636772 134.800827,52.350964 
	C134.788315,45.445835 136.926117,40.038548 143.370056,36.956120 
	C149.097061,34.216633 153.609314,37.453167 157.953934,40.437843 
	C164.756348,45.110985 171.380219,50.044048 178.221466,55.171059 
	C182.861343,58.854362 187.351364,62.244453 191.859085,65.610870 
	C205.684265,75.935677 219.495010,86.279999 233.351898,96.562126 
	C245.779099,105.783386 258.190186,115.030609 270.805664,123.988533 
	C272.379120,125.105797 275.871155,125.539192 277.267212,124.563118 
	C286.876526,117.844688 296.179871,110.687096 305.552795,103.632484 
	C320.457367,92.414459 335.280029,81.086723 350.248566,69.954926 
	C363.787476,59.886314 377.551575,50.119942 391.064728,40.017456 
	C397.656952,35.089092 401.059692,34.244904 407.652374,38.755310 
	C410.221771,40.513172 411.479156,44.188751 413.203217,47.445240 
	C413.047943,83.848038 412.990448,119.796448 413.013763,155.744797 
	C413.024689,172.545959 413.191895,189.347015 413.431244,206.428589 
	C418.421295,210.382416 423.676453,213.630890 428.032654,217.815201 
	C437.903900,227.296967 448.318451,236.472656 456.668732,247.206787 
	C465.362457,258.382446 471.223633,271.467682 475.710052,285.172821 
	C479.871735,297.886017 482.281067,310.824341 484.043579,324.359985 
	C484.394135,330.293121 484.801147,335.831299 485.228241,341.643066 
	C477.694183,342.052765 470.824402,342.426331 463.954620,342.799896 
	C463.600250,342.812286 463.245911,342.824677 462.667297,342.329987 
	C462.146393,335.475891 461.849731,329.128845 461.670593,322.491150 
	C461.478119,321.371948 461.168060,320.543396 460.813263,319.260681 
	C460.025665,314.459961 459.282837,310.113464 458.659302,305.478638 
	C458.472107,304.376770 458.165649,303.563232 457.799652,302.323242 
	C457.337097,300.526245 456.934021,299.155731 456.647675,297.538300 
	C456.463959,296.789246 456.163513,296.287079 455.800842,295.367798 
	C455.349518,293.905151 454.960388,292.859619 454.678833,291.555786 
	C454.482483,290.764038 454.178528,290.230560 453.858215,289.285065 
	C449.519684,275.151184 441.851685,263.275024 432.718689,252.426071 
	C428.938904,247.936142 423.669830,244.699951 419.078064,240.893585 
	C419.078064,240.893600 418.998199,240.994675 419.023315,240.669434 
	C418.727570,240.200302 418.406708,240.056396 418.085846,239.912506 
	C418.085846,239.912506 418.017456,240.004044 418.134216,239.603439 
	C417.037964,238.346069 415.824982,237.489304 414.611938,236.632538 
	C414.091431,237.926895 413.188019,239.202087 413.122101,240.519211 
	C412.923340,244.491180 413.125183,248.481293 413.025665,252.460709 
	C412.948975,255.528244 413.142029,258.721252 412.362701,261.630066 
	C410.070007,270.187347 404.242065,275.662750 395.776642,278.522797 
	C369.532043,278.165680 343.600616,278.081390 317.669189,278.067383 
	C316.828918,278.066925 315.988251,278.784546 314.944550,279.260803 
	C314.741302,279.354218 314.311646,279.478973 314.046021,279.441498 
	C313.784363,279.965454 313.788391,280.526855 313.777954,281.445984 
	C314.229340,284.879883 314.695190,287.956055 315.140137,291.389618 
	C315.203918,292.449493 315.288544,293.152008 315.419312,294.237885 
	C316.995575,301.847137 318.505768,309.077332 320.060486,316.297882 
	C322.410614,327.212616 324.791718,338.120667 327.139221,349.389343 
	C327.201172,350.451050 327.283569,351.155029 327.402466,352.226318 
	C328.021667,354.742584 328.604401,356.891510 329.155762,359.394196 
	C329.223114,360.440857 329.321838,361.133728 329.442383,362.210266 
	C331.995605,374.461487 334.568329,386.320404 337.042053,398.199982 
	C338.407837,404.759094 339.607483,411.352844 340.424255,417.953400 
	C330.976471,418.123840 321.986481,418.271851 312.577148,418.325195 
	C311.367767,415.318207 310.522217,412.419586 309.798462,409.490936 
	C307.881348,401.733582 305.788971,394.010101 304.180267,386.188019 
	C301.088470,371.154419 298.395508,356.039032 295.326385,341.000549 
	C292.257843,325.965210 288.931702,310.982391 285.735748,295.583374 
	C285.372650,293.410431 285.024445,291.623077 284.606842,289.852112 
	C281.728485,277.645386 283.708801,279.159363 270.124756,279.309723 
	C268.535248,279.327332 266.033997,281.176666 265.571014,282.675812 
	C264.278687,286.860352 263.879852,291.315613 263.046570,295.648285 
	C261.601318,303.163361 260.188171,310.686615 258.588165,318.169342 
	C256.884247,326.138275 254.819748,334.031830 253.200180,342.016632 
	C250.947723,353.121674 248.995453,364.287292 246.852097,375.414886 
	C245.398148,382.963318 243.836716,390.491058 242.195023,398.351135 
	C240.369827,405.228638 238.672943,411.783081 236.523621,418.211304 
	C227.029373,418.111542 217.987579,418.137970 208.885773,417.733276 
	C210.816513,406.358337 212.814301,395.415771 214.795944,384.470245 
	C216.667862,374.130676 218.522842,363.788025 220.685211,353.289062 
	C221.507812,352.513367 222.355606,351.964539 222.504044,351.266876 
	C224.544891,341.675018 226.481155,332.060974 228.459579,322.455750 
	C231.133133,309.475647 233.915680,296.516144 236.353683,283.492096 
	C236.593140,282.212891 234.754791,280.544739 233.626785,278.732361 
	C206.549362,278.336395 179.726013,278.265167 152.521301,278.163452 
	C149.116165,277.064148 146.092438,275.995392 143.068710,274.926605 
	C143.068710,274.926605 142.999329,274.997986 143.013092,274.611511 
	C132.383682,263.821533 135.478821,249.997391 134.695084,236.217865 
	C131.872971,237.618301 129.846634,238.115341 128.539093,239.364655 
	C123.971413,243.728851 119.385170,248.124924 115.287727,252.920517 
	C102.313995,268.104797 94.363853,285.852905 89.625046,305.105103 
	C88.468918,309.802063 87.635216,314.614258 87.117683,319.423431 
	C86.471832,325.424835 86.358559,331.481781 85.913101,337.507202 
	C85.670593,340.787537 84.178070,342.408722 80.463417,342.194092 
	C74.986069,341.877563 69.473541,342.169769 63.666786,342.083008 
	C62.928493,341.942871 62.499413,341.922455 62.070335,341.902069 
	C62.070335,341.902069 62.032700,342.006744 62.166756,341.724670 
	C62.243992,341.279663 62.187164,341.116699 62.130333,340.953735 
M160.222122,145.908066 
	C159.779221,146.578018 159.336334,147.247971 158.998322,147.985336 
	C158.998322,147.985336 158.910339,147.896820 158.254074,148.070023 
	C157.594223,149.690628 156.934387,151.311218 155.933884,153.830383 
	C155.917023,182.439423 155.895279,211.048462 155.901138,239.657501 
	C155.901367,240.797424 156.163651,241.937271 156.320770,243.760193 
	C157.511887,245.570770 158.703003,247.381348 160.163864,249.825134 
	C161.384888,250.346542 162.605896,250.867950 164.356796,252.083267 
	C165.845810,252.180939 167.334824,252.363785 168.823853,252.364090 
	C239.057693,252.379028 309.291534,252.383820 379.525360,252.341980 
	C381.083313,252.341049 382.640961,251.787674 384.930695,251.391754 
	C390.452789,249.075104 392.188965,244.677032 392.172913,238.998795 
	C392.095703,211.700409 391.984558,184.400192 392.246063,157.104095 
	C392.313293,150.086578 389.206451,146.050278 382.541809,142.973053 
	C311.073120,142.941437 239.604446,142.907928 168.135773,142.902878 
	C167.362839,142.902817 166.589859,143.274872 165.154633,143.539948 
	C164.785660,143.751953 164.416702,143.963959 163.385483,144.196243 
	C162.539734,144.750214 161.694000,145.304184 160.993256,145.986618 
	C160.993256,145.986618 160.864349,145.841919 160.222122,145.908066 
z"/>
<path fill="#A4ACA4" opacity="1.000000" stroke="none" 
	d="
M413.334167,46.990822 
	C411.479156,44.188751 410.221771,40.513172 407.652374,38.755310 
	C401.059692,34.244904 397.656952,35.089092 391.064728,40.017456 
	C377.551575,50.119942 363.787476,59.886314 350.248566,69.954926 
	C335.280029,81.086723 320.457367,92.414459 305.552795,103.632484 
	C296.179871,110.687096 286.876526,117.844688 277.267212,124.563118 
	C275.871155,125.539192 272.379120,125.105797 270.805664,123.988533 
	C258.190186,115.030609 245.779099,105.783386 233.351898,96.562126 
	C219.495010,86.279999 205.684265,75.935677 191.859085,65.610870 
	C187.351364,62.244453 182.861343,58.854362 178.338760,54.969723 
	C178.525635,54.220982 178.785782,54.053238 179.094711,53.961113 
	C187.748154,60.196503 196.465973,66.344803 205.042465,72.684311 
	C227.018524,88.928421 248.971634,105.204437 270.815979,121.624619 
	C273.343994,123.524902 275.141968,123.713821 277.588440,121.875931 
	C297.691010,106.774132 317.822296,91.710449 337.969849,76.668709 
	C351.152771,66.826614 364.379089,57.042618 377.582153,47.227425 
	C381.277954,44.479950 385.020935,41.791111 388.634003,38.938259 
	C393.820526,34.843033 399.364716,32.274307 405.961823,35.079342 
	C412.832764,38.000824 415.780151,43.766090 415.834686,50.863708 
	C415.990814,71.181969 415.892273,91.502182 415.892517,111.821632 
	C415.892853,141.967697 415.950317,172.114059 415.802399,202.259384 
	C415.787476,205.305679 416.740631,207.109558 419.151764,208.695312 
	C453.210480,231.095108 474.187592,262.479034 482.859772,302.150909 
	C484.366119,309.041840 484.958710,316.132507 485.613342,323.569641 
	C484.868927,323.993927 484.484497,323.979462 484.100037,323.964996 
	C482.281067,310.824341 479.871735,297.886017 475.710052,285.172821 
	C471.223633,271.467682 465.362457,258.382446 456.668732,247.206787 
	C448.318451,236.472656 437.903900,227.296967 428.032654,217.815201 
	C423.676453,213.630890 418.421295,210.382416 413.650818,206.067642 
	C413.818207,204.604568 413.988373,203.782944 413.988586,202.961288 
	C414.001556,152.253494 414.005493,101.545708 413.972992,50.837933 
	C413.972168,49.555424 413.556427,48.273182 413.334167,46.990822 
z"/>
<path fill="#070707" opacity="1.000000" stroke="none" 
	d="
M308.815826,451.026947 
	C305.827515,450.411316 305.601105,448.370056 306.620392,446.134796 
	C308.578644,441.840393 310.768860,437.651794 313.017761,433.106232 
	C312.253876,429.927795 311.318939,426.037689 310.244232,421.565887 
	C321.640503,421.565887 332.457397,421.565887 344.080811,421.565887 
	C344.358612,425.275116 344.449982,429.102966 345.024536,432.856934 
	C345.247925,434.316498 346.564575,435.607422 347.377777,436.978394 
	C349.903229,441.236237 353.851166,445.127289 350.094421,450.859741 
	C335.765656,450.962738 322.290741,450.994843 308.815826,451.026947 
z"/>
<path fill="#070707" opacity="1.000000" stroke="none" 
	d="
M199.839172,451.046722 
	C198.951553,449.589844 197.296432,448.097809 197.361084,446.684509 
	C197.451889,444.699707 198.634354,442.666565 199.680038,440.843445 
	C202.118195,436.592499 204.844208,432.701172 204.290009,427.204193 
	C203.890533,423.241760 205.902237,420.643372 210.947083,420.966553 
	C218.563950,421.454407 226.235764,421.154053 233.882904,421.069336 
	C237.508957,421.029175 240.080994,421.585815 238.054352,426.104553 
	C237.988846,426.250641 238.043365,426.454498 237.969177,426.592194 
	C234.961639,432.172760 237.816544,436.492249 240.400543,441.325836 
	C241.762436,443.873352 240.831619,447.646545 240.070435,450.911469 
	C226.082977,450.986664 212.961090,451.016693 199.839172,451.046722 
z"/>
<path fill="#A2A4A2" opacity="1.000000" stroke="none" 
	d="
M340.882019,417.930969 
	C339.607483,411.352844 338.407837,404.759094 337.042053,398.199982 
	C334.568329,386.320404 331.995605,374.461487 329.611633,362.011658 
	C329.568359,360.633057 329.377716,359.836731 329.187103,359.040436 
	C328.604401,356.891510 328.021667,354.742584 327.583435,352.027527 
	C327.538513,350.651459 327.349060,349.841492 327.159637,349.031555 
	C324.791718,338.120667 322.410614,327.212616 320.060486,316.297882 
	C318.505768,309.077332 316.995575,301.847137 315.598969,294.039001 
	C315.541992,292.648590 315.351501,291.840393 315.161011,291.032227 
	C314.695190,287.956055 314.229340,284.879883 313.886566,281.182617 
	C314.110291,280.200653 314.210968,279.839813 314.311646,279.478973 
	C314.311646,279.478973 314.741302,279.354218 315.110657,279.276001 
	C315.480011,279.197754 315.814941,279.165405 316.164185,279.411804 
	C317.164886,279.768005 317.816223,279.973267 318.467743,279.973785 
	C342.091797,279.993011 365.715881,280.006531 389.339844,279.958740 
	C390.595398,279.956207 391.849854,279.413605 393.479187,279.104645 
	C394.598969,278.993408 395.344421,278.899933 396.089844,278.806488 
	C404.242065,275.662750 410.070007,270.187347 412.362701,261.630066 
	C413.142029,258.721252 412.948975,255.528244 413.025665,252.460709 
	C413.125183,248.481293 412.923340,244.491180 413.122101,240.519211 
	C413.188019,239.202087 414.091431,237.926895 414.611938,236.632538 
	C415.824982,237.489304 417.037964,238.346069 418.174194,239.559296 
	C417.363861,241.072235 416.100708,242.179230 415.987274,243.393616 
	C415.464996,248.984970 415.640381,254.658722 414.868408,260.205933 
	C413.253876,271.807892 402.404419,280.970428 390.695251,280.987183 
	C367.365143,281.020569 344.034973,280.991730 320.704834,281.013062 
	C318.973083,281.014618 317.241516,281.212189 315.067291,281.345856 
	C320.009918,304.862427 324.838165,327.641754 329.577576,350.439545 
	C334.161011,372.487152 338.689880,394.546478 343.057068,416.637390 
	C343.241119,417.568420 341.572021,419.831604 340.726288,419.852448 
	C331.233398,420.086212 321.724243,420.197784 312.243408,419.788025 
	C310.843292,419.727478 308.787415,416.976501 308.363678,415.160339 
	C306.049316,405.240509 304.134583,395.226959 302.112213,385.239624 
	C298.915527,369.453064 295.747345,353.660736 292.557770,337.872742 
	C289.727478,323.863312 286.884460,309.856476 284.309265,295.540192 
	C284.953827,295.480133 285.336182,295.728333 285.718506,295.976562 
	C288.931702,310.982391 292.257843,325.965210 295.326385,341.000549 
	C298.395508,356.039032 301.088470,371.154419 304.180267,386.188019 
	C305.788971,394.010101 307.881348,401.733582 309.798462,409.490936 
	C310.522217,412.419586 311.367767,415.318207 312.931885,418.517334 
	C321.095337,418.872986 328.485199,419.009033 335.873779,418.959259 
	C337.545441,418.948029 339.212708,418.290833 340.882019,417.930969 
z"/>
<path fill="#0F0F0F" opacity="1.000000" stroke="none" 
	d="
M55.214825,370.077698 
	C58.009640,364.468567 60.763336,359.235657 63.301201,354.412903 
	C62.758377,351.137573 62.239979,348.009583 61.592796,344.104553 
	C70.011986,344.104553 77.612457,343.939209 85.199333,344.188019 
	C88.126595,344.284027 89.300072,348.312836 86.936684,351.197357 
	C85.087105,353.454773 85.740898,354.732727 87.023712,356.730560 
	C89.251198,360.199585 91.159386,363.877899 93.122185,367.511322 
	C94.837715,370.686951 94.190453,373.246765 90.902725,374.981934 
	C87.746399,376.647766 85.605942,375.428284 83.894775,372.640350 
	C80.968475,367.872681 77.967041,363.151154 74.355362,357.385712 
	C72.640602,360.729034 71.382828,363.415253 69.910011,365.977875 
	C68.761772,367.975769 67.583389,370.055573 65.983345,371.667023 
	C64.343269,373.318726 61.952908,375.744812 60.294598,375.462311 
	C58.359402,375.132629 56.861404,372.236481 55.214825,370.077698 
z"/>
<path fill="#0B0B0B" opacity="1.000000" stroke="none" 
	d="
M462.825806,352.948608 
	C462.569916,352.541138 462.313995,352.133667 462.050293,351.018311 
	C462.026093,348.526764 462.009674,346.743103 461.993256,344.959412 
	C461.993256,344.959412 462.004120,345.003937 462.453430,345.015930 
	C470.290771,345.002106 477.678772,344.976257 485.066772,344.950409 
	C485.377930,346.327789 486.426636,348.222748 485.881653,348.999390 
	C482.075500,354.423309 486.795013,357.583221 488.883820,361.403839 
	C490.071045,363.575348 491.492157,365.620300 492.831909,367.706848 
	C494.853485,370.855255 493.291382,373.191925 490.777313,374.783295 
	C488.164124,376.437378 485.545807,376.417511 483.639282,373.228943 
	C480.770599,368.431091 477.714325,363.745453 474.120026,358.029694 
	C471.083984,362.913849 468.383514,367.091614 465.859039,371.373230 
	C463.925110,374.653229 461.754242,377.239227 457.562622,375.081635 
	C454.400665,373.454010 453.924500,369.623230 456.298706,365.615662 
	C458.065430,362.633514 459.971741,359.734039 462.206726,356.355499 
	C462.735657,355.609894 462.873749,355.306549 463.011841,355.003204 
	C463.011871,355.003204 463.001221,355.001068 463.274719,354.871094 
	C463.307404,354.143616 463.066589,353.546112 462.825806,352.948608 
z"/>
<path fill="#A9A9A9" opacity="1.000000" stroke="none" 
	d="
M178.933319,53.661324 
	C178.785782,54.053238 178.525635,54.220982 178.197006,54.665676 
	C171.380219,50.044048 164.756348,45.110985 157.953934,40.437843 
	C153.609314,37.453167 149.097061,34.216633 143.370056,36.956120 
	C136.926117,40.038548 134.788315,45.445835 134.800827,52.350964 
	C134.890213,101.636772 134.782898,150.923035 134.946823,200.208466 
	C134.962952,205.058975 133.481735,208.233841 129.520020,210.956772 
	C122.473335,215.800003 115.723320,221.074875 108.486107,226.146454 
	C115.017624,220.367996 121.714233,214.346939 128.901428,208.983261 
	C131.900909,206.744766 133.200775,204.719330 133.191208,200.946259 
	C133.064072,150.879303 133.160522,100.811775 133.041519,50.744774 
	C133.025452,43.984489 135.276855,38.703434 141.230316,35.612476 
	C147.034866,32.598843 152.748978,33.724747 157.908783,37.591457 
	C164.884827,42.819248 171.819519,48.102230 178.933319,53.661324 
z"/>
<path fill="#B0B7B0" opacity="1.000000" stroke="none" 
	d="
M63.976002,342.202698 
	C69.473541,342.169769 74.986069,341.877563 80.463417,342.194092 
	C84.178070,342.408722 85.670593,340.787537 85.913101,337.507202 
	C86.358559,331.481781 86.471832,325.424835 87.117683,319.423431 
	C87.635216,314.614258 88.468918,309.802063 89.625046,305.105103 
	C94.363853,285.852905 102.313995,268.104797 115.287727,252.920517 
	C119.385170,248.124924 123.971413,243.728851 128.539093,239.364655 
	C129.846634,238.115341 131.872971,237.618301 134.695084,236.217865 
	C135.478821,249.997391 132.383682,263.821533 143.045731,274.573151 
	C135.639984,271.214386 133.747910,264.324738 133.223236,256.966583 
	C132.812332,251.203735 133.140869,245.388184 133.140869,238.519531 
	C100.118950,266.037140 88.822617,301.897186 87.713058,343.025055 
	C80.089294,343.025055 72.503777,343.025055 64.451538,342.782532 
	C63.984814,342.540009 63.976002,342.202698 63.976002,342.202698 
z"/>
<path fill="#ACB2AC" opacity="1.000000" stroke="none" 
	d="
M285.735748,295.583374 
	C285.336182,295.728333 284.953827,295.480133 284.366516,295.127899 
	C283.184937,291.391968 282.173920,287.768829 281.239716,284.126038 
	C279.786285,278.458740 275.235321,281.777100 272.128510,281.045349 
	C269.738953,280.482483 268.351715,281.440277 267.789246,284.338623 
	C264.294373,302.346649 260.576843,320.312134 256.842468,338.272858 
	C253.740829,353.190430 250.525558,368.084412 247.337173,382.983826 
	C246.315674,387.757324 245.219254,392.514771 243.744202,397.641327 
	C242.995300,398.011414 242.659317,398.019714 242.323334,398.028046 
	C243.836716,390.491058 245.398148,382.963318 246.852097,375.414886 
	C248.995453,364.287292 250.947723,353.121674 253.200180,342.016632 
	C254.819748,334.031830 256.884247,326.138275 258.588165,318.169342 
	C260.188171,310.686615 261.601318,303.163361 263.046570,295.648285 
	C263.879852,291.315613 264.278687,286.860352 265.571014,282.675812 
	C266.033997,281.176666 268.535248,279.327332 270.124756,279.309723 
	C283.708801,279.159363 281.728485,277.645386 284.606842,289.852112 
	C285.024445,291.623077 285.372650,293.410431 285.735748,295.583374 
z"/>
<path fill="#B0B7B0" opacity="1.000000" stroke="none" 
	d="
M233.880890,279.057098 
	C234.754791,280.544739 236.593140,282.212891 236.353683,283.492096 
	C233.915680,296.516144 231.133133,309.475647 228.459579,322.455750 
	C226.481155,332.060974 224.544891,341.675018 222.504044,351.266876 
	C222.355606,351.964539 221.507812,352.513367 220.565063,352.914001 
	C220.089081,352.441772 220.033203,352.186951 219.977325,351.932159 
	C222.114594,340.812958 224.196686,329.682770 226.404678,318.577606 
	C228.611542,307.478180 230.684738,296.340790 233.352402,285.350098 
	C234.388138,281.082886 232.628113,280.907959 229.505508,280.938751 
	C222.690323,281.005951 215.874008,280.961029 209.058167,280.960663 
	C191.769180,280.959778 174.466766,281.332062 157.200058,280.711182 
	C152.501190,280.542236 147.909943,277.380188 143.169006,275.259216 
	C146.092438,275.995392 149.116165,277.064148 152.865936,278.399597 
	C155.238937,278.801666 156.885803,279.053772 158.532883,279.055084 
	C183.648880,279.075073 208.764877,279.062256 233.880890,279.057098 
z"/>
<path fill="#A9A9A9" opacity="1.000000" stroke="none" 
	d="
M101.800285,232.205811 
	C99.819290,235.777328 97.441086,239.372650 95.197334,243.050003 
	C89.316406,252.688431 82.669373,261.975067 77.893562,272.137756 
	C73.603142,281.267578 70.460190,291.190979 68.503014,301.098541 
	C66.055534,313.488190 65.344231,326.220306 63.845272,338.800049 
	C63.795097,339.221130 63.331127,339.592896 62.677353,340.149628 
	C61.066872,324.309357 63.987583,308.812653 67.905800,293.418030 
	C73.354683,272.009338 83.909447,253.260056 97.556671,236.111115 
	C98.686043,234.691925 100.153801,233.542023 101.800285,232.205811 
z"/>
<path fill="#A2A4A2" opacity="1.000000" stroke="none" 
	d="
M456.530975,297.785217 
	C456.934021,299.155731 457.337097,300.526245 457.842590,302.571075 
	C458.143372,304.085907 458.341675,304.926422 458.539978,305.766937 
	C459.282837,310.113464 460.025665,314.459961 460.855927,319.514832 
	C461.146576,321.076080 461.349823,321.928955 461.553040,322.781830 
	C461.849731,329.128845 462.146393,335.475891 462.404694,342.280640 
	C461.618225,341.192474 460.207794,339.640320 460.222382,338.101685 
	C460.411163,318.180420 456.236206,299.247101 448.197449,281.047516 
	C441.427338,265.720215 431.351837,252.908813 419.152344,241.224960 
	C423.669830,244.699951 428.938904,247.936142 432.718689,252.426071 
	C441.851685,263.275024 449.519684,275.151184 453.898926,289.498291 
	C454.161072,290.687042 454.366150,291.250549 454.571259,291.814087 
	C454.960388,292.859619 455.349518,293.905151 455.845276,295.569519 
	C456.144928,296.720642 456.337952,297.252930 456.530975,297.785217 
z"/>
<path fill="#A4ACA4" opacity="1.000000" stroke="none" 
	d="
M219.675995,352.180542 
	C220.033203,352.186951 220.089081,352.441772 220.265106,353.071655 
	C218.522842,363.788025 216.667862,374.130676 214.795944,384.470245 
	C212.814301,395.415771 210.816513,406.358337 209.209595,417.992615 
	C218.720978,418.567871 227.848526,418.452698 236.976074,418.337524 
	C238.672943,411.783081 240.369827,405.228638 242.195007,398.351135 
	C242.659317,398.019714 242.995300,398.011414 243.584290,397.997620 
	C242.691803,404.403290 241.674057,410.842499 240.280197,417.199188 
	C240.036285,418.311615 238.227814,419.858551 237.114685,419.881470 
	C227.009201,420.089417 216.897644,420.003418 205.563629,420.003418 
	C210.245621,397.095398 214.810150,374.762146 219.675995,352.180542 
z"/>
<path fill="#BABABA" opacity="1.000000" stroke="none" 
	d="
M484.043579,324.359985 
	C484.484497,323.979462 484.868927,323.993927 485.542267,324.013000 
	C486.306122,330.076477 486.781067,336.135345 487.320374,343.015015 
	C479.345764,343.015015 472.111359,343.015015 464.415802,342.907471 
	C470.824402,342.426331 477.694183,342.052765 485.228241,341.643066 
	C484.801147,335.831299 484.394135,330.293121 484.043579,324.359985 
z"/>
<path fill="#444445" opacity="1.000000" stroke="none" 
	d="
M309.114075,451.347351 
	C322.290741,450.994843 335.765656,450.962738 349.730957,450.952911 
	C349.507874,451.308197 348.793396,451.933258 348.081024,451.930878 
	C335.191284,451.888184 322.301819,451.769867 309.114075,451.347351 
z"/>
<path fill="#444445" opacity="1.000000" stroke="none" 
	d="
M200.135468,451.364838 
	C212.961090,451.016693 226.082977,450.986664 239.685974,451.008667 
	C239.608643,451.356903 239.049408,451.912903 238.491928,451.911194 
	C225.805084,451.871979 213.118439,451.771729 200.135468,451.364838 
z"/>
<path fill="#333333" opacity="1.000000" stroke="none" 
	d="
M484.784973,344.630463 
	C477.678772,344.976257 470.290771,345.002106 462.431152,345.010742 
	C469.474060,344.765839 476.988617,344.538177 484.784973,344.630463 
z"/>
<path fill="#333333" opacity="1.000000" stroke="none" 
	d="
M461.670044,345.170654 
	C462.009674,346.743103 462.026093,348.526764 462.028107,350.763672 
	C461.791412,349.271912 461.569122,347.326904 461.670044,345.170654 
z"/>
<path fill="#A9A9A9" opacity="1.000000" stroke="none" 
	d="
M63.666786,342.083008 
	C63.976002,342.202698 63.984814,342.540009 63.987358,342.708679 
	C63.398251,342.758209 62.806595,342.639130 62.142639,342.211060 
	C62.499413,341.922455 62.928493,341.942871 63.666786,342.083008 
z"/>
<path fill="#333333" opacity="1.000000" stroke="none" 
	d="
M462.887207,353.289185 
	C463.066589,353.546112 463.307404,354.143616 463.277222,354.875977 
	C462.987030,354.550476 462.967804,354.090118 462.887207,353.289185 
z"/>
<path fill="#333333" opacity="1.000000" stroke="none" 
	d="
M462.749634,355.098938 
	C462.873749,355.306549 462.735657,355.609894 462.389679,356.066803 
	C462.283661,355.878448 462.385529,355.536560 462.749634,355.098938 
z"/>
<path fill="#A9A9A9" opacity="1.000000" stroke="none" 
	d="
M102.839317,231.162949 
	C102.979759,231.464294 102.845230,231.778305 102.435623,232.104553 
	C102.295151,231.803070 102.429741,231.489349 102.839317,231.162949 
z"/>
<path fill="#A9A9A9" opacity="1.000000" stroke="none" 
	d="
M104.827942,229.146179 
	C104.963898,229.445450 104.823135,229.758255 104.407982,230.088135 
	C104.272804,229.790039 104.412018,229.474869 104.827942,229.146179 
z"/>
<path fill="#A9A9A9" opacity="1.000000" stroke="none" 
	d="
M105.838257,228.157120 
	C105.970734,228.451492 105.832489,228.772064 105.412674,229.101120 
	C105.276573,228.800842 105.422058,228.492065 105.838257,228.157120 
z"/>
<path fill="#A9A9A9" opacity="1.000000" stroke="none" 
	d="
M106.827530,227.144791 
	C106.963097,227.443069 106.821991,227.755875 106.406357,228.086761 
	C106.271507,227.789673 106.411179,227.474487 106.827530,227.144791 
z"/>
<path fill="#A2A4A2" opacity="1.000000" stroke="none" 
	d="
M418.111511,240.190735 
	C418.406708,240.056396 418.727570,240.200302 419.069641,240.625153 
	C418.772919,240.760406 418.455048,240.614685 418.111511,240.190735 
z"/>
<path fill="#A9A9A9" opacity="1.000000" stroke="none" 
	d="
M107.838974,226.158707 
	C107.970566,226.455078 107.830315,226.773911 107.409302,227.100800 
	C107.274734,226.799622 107.420937,226.490387 107.838974,226.158707 
z"/>
<path fill="#A9A9A9" opacity="1.000000" stroke="none" 
	d="
M103.839081,230.157715 
	C103.977539,230.453262 103.844719,230.774551 103.431381,231.105682 
	C103.289848,230.804855 103.428825,230.494156 103.839081,230.157715 
z"/>
<path fill="#A9A9A9" opacity="1.000000" stroke="none" 
	d="
M61.850464,341.002747 
	C62.187164,341.116699 62.243992,341.279663 62.203094,341.682434 
	C61.927116,341.632080 61.748856,341.341888 61.850464,341.002747 
z"/>
<path fill="#050505" opacity="1.000000" stroke="none" 
	d="
M383.166687,143.552063 
	C389.206451,146.050278 392.313293,150.086578 392.246063,157.104095 
	C391.984558,184.400192 392.095703,211.700409 392.172913,238.998795 
	C392.188965,244.677032 390.452789,249.075104 384.127777,251.227463 
	C382.494751,251.023651 381.664673,250.949615 380.834564,250.949539 
	C309.803802,250.942780 238.773041,250.939377 167.742279,250.959061 
	C166.437119,250.959427 165.132034,251.239700 163.826904,251.389374 
	C162.605896,250.867950 161.384888,250.346542 160.065704,249.105316 
	C159.320175,244.491379 158.168594,240.604263 158.114182,236.701859 
	C157.898285,221.216568 157.910583,205.725388 158.059082,190.238510 
	C158.194427,176.123199 158.615311,162.010605 158.910339,147.896820 
	C158.910339,147.896820 158.998322,147.985336 159.284668,147.932129 
	C160.002136,147.199936 160.433243,146.520920 160.864349,145.841919 
	C160.864349,145.841919 160.993256,145.986618 161.276917,145.968536 
	C162.389648,145.358963 163.218704,144.767471 164.047745,144.175980 
	C164.416702,143.963959 164.785660,143.751953 165.911774,143.745087 
	C167.332123,143.995697 167.995346,144.080902 168.658554,144.080963 
	C238.863846,144.086777 309.069153,144.089050 379.274445,144.063705 
	C380.571930,144.063232 381.869263,143.730026 383.166687,143.552063 
M280.105164,182.706894 
	C275.435364,195.324799 277.262268,207.306900 283.580719,218.880325 
	C293.851349,237.692856 315.303467,244.318024 335.156525,238.150986 
	C350.352203,233.430664 359.792999,222.083710 363.410828,207.417068 
	C366.251099,195.902557 364.753571,183.743820 357.582581,173.171417 
	C348.127899,159.232086 334.449921,152.528580 318.295258,153.632950 
	C300.299042,154.863251 287.325989,164.969254 280.105164,182.706894 
M195.148407,226.359009 
	C207.746796,241.477325 225.039429,242.951248 240.952469,238.153580 
	C262.529938,231.648071 276.076538,207.307053 268.297791,183.369904 
	C260.116913,158.195404 230.861694,146.050980 207.014572,158.436020 
	C192.356384,166.048752 181.139999,182.782333 184.202820,203.185867 
	C185.467300,211.609390 188.252075,219.640747 195.148407,226.359009 
z"/>
<path fill="#01B101" opacity="1.000000" stroke="none" 
	d="
M164.091858,251.736328 
	C165.132034,251.239700 166.437119,250.959427 167.742279,250.959061 
	C238.773041,250.939377 309.803802,250.942780 380.834564,250.949539 
	C381.664673,250.949615 382.494751,251.023651 383.761780,251.277588 
	C382.640961,251.787674 381.083313,252.341049 379.525360,252.341980 
	C309.291534,252.383820 239.057693,252.379028 168.823853,252.364090 
	C167.334824,252.363785 165.845810,252.180939 164.091858,251.736328 
z"/>
<path fill="#01C101" opacity="1.000000" stroke="none" 
	d="
M382.854248,143.262543 
	C381.869263,143.730026 380.571930,144.063232 379.274445,144.063705 
	C309.069153,144.089050 238.863846,144.086777 168.658554,144.080963 
	C167.995346,144.080902 167.332123,143.995697 166.242920,143.711731 
	C166.589859,143.274872 167.362839,142.902817 168.135773,142.902878 
	C239.604446,142.907928 311.073120,142.941437 382.854248,143.262543 
z"/>
<path fill="#A4FEA5" opacity="1.000000" stroke="none" 
	d="
M413.203247,47.445236 
	C413.556427,48.273182 413.972168,49.555424 413.972992,50.837933 
	C414.005493,101.545708 414.001556,152.253494 413.988586,202.961288 
	C413.988373,203.782944 413.818207,204.604568 413.507812,205.787170 
	C413.191895,189.347015 413.024689,172.545959 413.013763,155.744797 
	C412.990448,119.796448 413.047943,83.848038 413.203247,47.445236 
z"/>
<path fill="#333333" opacity="1.000000" stroke="none" 
	d="
M158.582214,147.983429 
	C158.615311,162.010605 158.194427,176.123199 158.059082,190.238510 
	C157.910583,205.725388 157.898285,221.216568 158.114182,236.701859 
	C158.168594,240.604263 159.320175,244.491379 159.930832,248.788712 
	C158.703003,247.381348 157.511887,245.570770 156.572388,243.087097 
	C156.885895,213.346161 156.953400,184.278336 156.978699,155.210464 
	C156.979370,154.451126 156.519592,153.691376 156.274551,152.931824 
	C156.934387,151.311218 157.594223,149.690628 158.582214,147.983429 
z"/>
<path fill="#01C101" opacity="1.000000" stroke="none" 
	d="
M156.104218,153.381104 
	C156.519592,153.691376 156.979370,154.451126 156.978699,155.210464 
	C156.953400,184.278336 156.885895,213.346161 156.563904,242.745575 
	C156.163651,241.937271 155.901367,240.797424 155.901138,239.657501 
	C155.895279,211.048462 155.917023,182.439423 156.104218,153.381104 
z"/>
<path fill="#C6FFC6" opacity="1.000000" stroke="none" 
	d="
M233.626801,278.732361 
	C208.764877,279.062256 183.648880,279.075073 158.532883,279.055084 
	C156.885803,279.053772 155.238937,278.801666 153.247314,278.430115 
	C179.726013,278.265167 206.549362,278.336395 233.626801,278.732361 
z"/>
<path fill="#C6FFC6" opacity="1.000000" stroke="none" 
	d="
M315.814941,279.165405 
	C315.814941,279.165405 315.480011,279.197754 315.313904,279.182587 
	C315.988251,278.784546 316.828918,278.066925 317.669189,278.067383 
	C343.600616,278.081390 369.532043,278.165680 395.776642,278.522797 
	C395.344421,278.899933 394.598969,278.993408 393.001434,279.060913 
	C366.704529,279.078430 341.259735,279.121918 315.814941,279.165405 
z"/>
<path fill="#A4FEA5" opacity="1.000000" stroke="none" 
	d="
M236.523605,418.211304 
	C227.848526,418.452698 218.720978,418.567871 209.269623,418.423706 
	C217.987579,418.137970 227.029373,418.111542 236.523605,418.211304 
z"/>
<path fill="#A4FEA5" opacity="1.000000" stroke="none" 
	d="
M340.424255,417.953400 
	C339.212708,418.290833 337.545441,418.948029 335.873779,418.959259 
	C328.485199,419.009033 321.095337,418.872986 313.351227,418.612000 
	C321.986481,418.271851 330.976471,418.123840 340.424255,417.953400 
z"/>
<path fill="#333333" opacity="1.000000" stroke="none" 
	d="
M163.716614,144.186111 
	C163.218704,144.767471 162.389648,145.358963 161.204437,145.904297 
	C161.694000,145.304184 162.539734,144.750214 163.716614,144.186111 
z"/>
<path fill="#333333" opacity="1.000000" stroke="none" 
	d="
M160.543243,145.875000 
	C160.433243,146.520920 160.002136,147.199936 159.232239,147.898438 
	C159.336334,147.247971 159.779221,146.578018 160.543243,145.875000 
z"/>
<path fill="#A4AEA4" opacity="1.000000" stroke="none" 
	d="
M458.659302,305.478638 
	C458.341675,304.926422 458.143372,304.085907 457.902100,302.997559 
	C458.165649,303.563232 458.472107,304.376770 458.659302,305.478638 
z"/>
<path fill="#A4AEA4" opacity="1.000000" stroke="none" 
	d="
M461.670593,322.491150 
	C461.349823,321.928955 461.146576,321.076080 460.900665,319.969025 
	C461.168060,320.543396 461.478119,321.371948 461.670593,322.491150 
z"/>
<path fill="#A4AEA4" opacity="1.000000" stroke="none" 
	d="
M456.647675,297.538300 
	C456.337952,297.252930 456.144928,296.720642 455.907471,295.986633 
	C456.163513,296.287079 456.463959,296.789246 456.647675,297.538300 
z"/>
<path fill="#A4AEA4" opacity="1.000000" stroke="none" 
	d="
M315.140137,291.389618 
	C315.351501,291.840393 315.541992,292.648590 315.552826,293.655640 
	C315.288544,293.152008 315.203918,292.449493 315.140137,291.389618 
z"/>
<path fill="#A4AEA4" opacity="1.000000" stroke="none" 
	d="
M454.678833,291.555786 
	C454.366150,291.250549 454.161072,290.687042 453.915283,289.910309 
	C454.178528,290.230560 454.482483,290.764038 454.678833,291.555786 
z"/>
<path fill="#A4AEA4" opacity="1.000000" stroke="none" 
	d="
M327.139221,349.389343 
	C327.349060,349.841492 327.538513,350.651459 327.546936,351.660187 
	C327.283569,351.155029 327.201172,350.451050 327.139221,349.389343 
z"/>
<path fill="#A4AEA4" opacity="1.000000" stroke="none" 
	d="
M329.155762,359.394196 
	C329.377716,359.836731 329.568359,360.633057 329.589783,361.627991 
	C329.321838,361.133728 329.223114,360.440857 329.155762,359.394196 
z"/>
<path fill="#CDCECD" opacity="1.000000" stroke="none" 
	d="
M314.046021,279.441498 
	C314.210968,279.839813 314.110291,280.200653 313.901001,280.824890 
	C313.788391,280.526855 313.784363,279.965454 314.046021,279.441498 
z"/>
<path fill="#CDCECD" opacity="1.000000" stroke="none" 
	d="
M316.164185,279.411804 
	C341.259735,279.121918 366.704529,279.078430 392.627075,279.078674 
	C391.849854,279.413605 390.595398,279.956207 389.339844,279.958740 
	C365.715881,280.006531 342.091797,279.993011 318.467743,279.973785 
	C317.816223,279.973267 317.164886,279.768005 316.164185,279.411804 
z"/>
<path fill="#E5E9E1" opacity="1.000000" stroke="none" 
	d="
M280.149719,182.306610 
	C287.325989,164.969254 300.299042,154.863251 318.295258,153.632950 
	C334.449921,152.528580 348.127899,159.232086 357.582581,173.171417 
	C364.753571,183.743820 366.251099,195.902557 363.410828,207.417068 
	C359.792999,222.083710 350.352203,233.430664 335.156525,238.150986 
	C315.303467,244.318024 293.851349,237.692856 283.580719,218.880325 
	C277.262268,207.306900 275.435364,195.324799 280.149719,182.306610 
M352.164795,184.377350 
	C349.540283,180.475830 347.635651,175.702225 344.159363,172.832520 
	C332.667267,163.345596 319.726318,160.603790 305.808594,167.499054 
	C289.741241,175.459305 284.591034,190.343994 288.622162,205.487625 
	C294.558929,227.789993 318.982239,238.640259 340.508087,224.630554 
	C352.353149,216.921402 358.617249,198.336426 352.164795,184.377350 
z"/>
<path fill="#E5E8E1" opacity="1.000000" stroke="none" 
	d="
M194.897125,226.104828 
	C188.252075,219.640747 185.467300,211.609390 184.202820,203.185867 
	C181.139999,182.782333 192.356384,166.048752 207.014572,158.436020 
	C230.861694,146.050980 260.116913,158.195404 268.297791,183.369904 
	C276.076538,207.307053 262.529938,231.648071 240.952469,238.153580 
	C225.039429,242.951248 207.746796,241.477325 194.897125,226.104828 
M258.545532,185.192261 
	C255.900482,181.101730 253.969437,176.220810 250.478226,173.066940 
	C239.432159,163.088196 223.607132,160.770172 210.277527,168.036301 
	C197.495575,175.003906 190.264877,192.287338 194.445724,205.773315 
	C199.771484,222.952438 218.116211,235.388977 237.482361,229.180099 
	C255.430283,223.425888 265.522339,202.293808 258.545532,185.192261 
z"/>
<path fill="#040404" opacity="1.000000" stroke="none" 
	d="
M352.232971,184.737366 
	C358.617249,198.336426 352.353149,216.921402 340.508087,224.630554 
	C318.982239,238.640259 294.558929,227.789993 288.622162,205.487625 
	C284.591034,190.343994 289.741241,175.459305 305.808594,167.499054 
	C319.726318,160.603790 332.667267,163.345596 344.159363,172.832520 
	C347.635651,175.702225 349.540283,180.475830 352.232971,184.737366 
z"/>
<path fill="#050404" opacity="1.000000" stroke="none" 
	d="
M258.712372,185.555573 
	C265.522339,202.293808 255.430283,223.425888 237.482361,229.180099 
	C218.116211,235.388977 199.771484,222.952438 194.445724,205.773315 
	C190.264877,192.287338 197.495575,175.003906 210.277527,168.036301 
	C223.607132,160.770172 239.432159,163.088196 250.478226,173.066940 
	C253.969437,176.220810 255.900482,181.101730 258.712372,185.555573 
z"/>
</svg>